<svg data-v-6805eed4="" version="1.0" xmlns="http://www.w3.org/2000/svg" xmlns:xlink="http://www.w3.org/1999/xlink"
  width="100%" height="100%" viewBox="150 150 50 30" preserveAspectRatio="xMidYMid meet"
  color-interpolation-filters="sRGB" style="margin: auto;" class="">
  <rect data-v-6805eed4="" x="0" y="0" width="100%" height="100%" fill="#ffffff" fill-opacity="0" class="background">
  </rect>
  <rect data-v-6805eed4="" x="0" y="0" width="100%" height="100%" fill="url(#watermark)" fill-opacity="1"
    class="watermarklayer"></rect>
  <g data-v-6805eed4="" fill="#333" class="icon-text-wrapper icon-svg-group iconsvg"
    transform="translate(82.32561492919922,63.685855865478516)">
    <g class="iconsvg-imagesvg" transform="matrix(1,0,0,1,82.60000038146973,87.58423519134521)"
      opacity="0.85">
      <g>
        <rect fill="#333" fill-opacity="0" stroke-width="2" x="0" y="0" width="23.400000000000006"
          height="21.459817866674005" class="image-rect"></rect> <svg x="0" y="0" width="23.400000000000006"
          height="21.459817866674005" filtersec="colorsb9906178567" class="image-svg-svg primary"
          style="overflow: visible;"><svg xmlns="http://www.w3.org/2000/svg"
            viewBox="0.0019216537475585938 -0.0004210472106933594 199.82357788085938 183.2557373046875">
            <path
              d="M146.29 161.51h15.67a16.17 16.17 0 0 0 0-32.34h-32.58c-1.63 0-1.65 0-.9-1.44a33.06 33.06 0 0 1 4.76-7 1.51 1.51 0 0 0 .22-2.12Q119.79 95 106.15 71.36c-5.38-9.31-10.79-18.62-16.13-28a11.22 11.22 0 0 1 3.92-15.14 11.05 11.05 0 0 1 15.32 3.45c4.32 7.1 8.39 14.35 12.54 21.54q15.67 27.12 31.31 54.27c.46.79.91.86 1.74.73 15.9-2.49 29.2 2.5 38.16 15.73 16.27 24 1.58 54-24.73 58.6a37.65 37.65 0 0 1-39.7-19.49c-.83-1.57-.83-1.57.94-1.57z"
              fill="#e02839"></path>
            <path
              d="M137.5 39.94c0 5.46-2.06 12.14-5.92 18.29-.6 1-.8.77-1.28-.06-5.57-9.68-11.05-19.41-16.8-29A16.24 16.24 0 0 0 85.7 46q8.1 14.09 16.3 28.17c.78 1.36.79 1.38-.84 1.41a35.24 35.24 0 0 1-8.26-.67 1.54 1.54 0 0 0-2 .85q-16 27.85-32.1 55.7c-3.68 6.37-7.35 12.74-11.07 19.09-3.84 6.53-11.57 8-17.24 3.36-4.18-3.43-5.15-9.41-2.26-14.46 4.11-7.17 8.28-14.31 12.41-21.47q8.52-14.74 17-29.49 6.9-12 13.83-23.93a1.42 1.42 0 0 0-.14-2A36.38 36.38 0 0 1 62.4 34C64 18.88 72.3 8.36 86.22 2.83c13.48-5.35 26.3-3 37.63 6.07 8.92 7.1 13.68 17.74 13.65 31.04z"
              fill="#fdc301"></path>
            <path
              d="M118.81 156.7H75.46a1.91 1.91 0 0 0-2.12 1.5c-5.2 13.67-15.18 22.17-29.42 24.51a37.43 37.43 0 0 1-43.23-30.4c-2.27-12.72 1.08-23.93 10-33.22 7.8-8.13 17.56-11.83 28.86-11.43 1.57.06.89.77.52 1.43-5.25 9.08-10.46 18.18-15.76 27.23-3.1 5.28-3.79 10.7-1 16.23a15.37 15.37 0 0 0 13.52 8.94 15.27 15.27 0 0 0 14.84-7.85c5.55-9.32 10.88-18.77 16.31-28.17.13-.23.28-.47.41-.71.37-.71.66-.69 1.1 0a34.78 34.78 0 0 1 3.93 8.06 1.6 1.6 0 0 0 1.84 1.3h86.16c8.07 0 13.52 7 11.33 14.63a11.25 11.25 0 0 1-11 8q-21.47-.03-42.94-.05z"
              fill="#1fafbd"></path>
          </svg></svg> <!---->
      </g>
    </g>
    <g transform="translate(0,0)">
      <g fill-rule="evenodd" class="iconsvg-namesvg tp-name" transform="matrix(1,0,0,1,0,0)" opacity="0">
        <g transform="scale(1)">
          <g>
            <g fill="url(#p1qomFu8Huyuf9rbijHD7)" data-gra-ignore="true">
              <path
                d="M126.4098382434043-14.234Q130.14207907006485-30.580000000000002 133.83358836418176-46.69500000000001 137.24221932953017-44.759 140.65278989166637-42.834 135.93362978606604-22.649 131.15494621216615-2.0130000000000003C129.23232209805258-1.034 127.33430871005821-0.30800000000000005 125.48060403212207 0.11000000000000001 122.47483225697654 0.8800000000000001 119.57155709552303 1.0120000000000002 116.81077854776153 0.5060000000000001 114.14 0 111.77227508283468-1.7710000000000004 109.8317850059022-4.774 108.06220097715284-7.612 106.79761017578747-11.726 106.16340187568684-16.863000000000003Q105.30396527211292-24.409000000000002 106.12912584942625-34.760000000000005 107.06204481389074-45.155 109.93137305560869-58.025000000000006C111.17565467520289-63.437000000000005 112.98114435904124-68.629 115.22547299385332-73.304Q118.34462034040995-79.651 121.99438526432064-83.33600000000001C124.43527776727174-85.72300000000001 127.05324414004824-87.186 129.64888841477216-87.61500000000001 132.3306534959205-88.022 134.94367365653085-87.47200000000001 137.37540526769334-86.06400000000001 138.90605631503325-85.217 140.39403623304173-84.12800000000001 141.79128461850658-82.808 142.85314373009064-81.74100000000001 143.89754647058456-80.575 144.88061364641277-79.28800000000001 145.59156670981375-78.38600000000001 146.241184208549-77.363 146.84528493298188-76.252 147.19115073856312-75.54800000000002 147.52701654414437-74.84400000000001 147.87094275293782-74.129Q145.6726879093323-70.16900000000001 143.46279548500002-66.14300000000001C142.5041645196516-68.07900000000001 141.3967416185473-69.795 140.1488892009604-71.22500000000001 138.72952670306836-72.93 137.1442179143913-74.26100000000001 135.45326485099037-75.16300000000001 132.20566743424664-77.275 128.34601646552554-76.483 124.96534549343173-72.96300000000001 121.45114435904124-68.629 118.73303056108931-62.458000000000006 117.17664837429984-54.879000000000005Q115.35686352563529-46.827000000000005 114.58836722641858-39.633C114.07640770487693-35.255 113.94160253836438-31.031000000000002 114.20632084015135-27.258000000000003Q114.5888915595252-22.055000000000003 116.18373736173375-18.623C117.4225428427216-16.291 119.01233485709629-14.872 120.84444896952354-14.487000000000002 121.92401945304091-14.201 123.03492550122402-14.036000000000001 124.16104630764842-14.014000000000001 124.89328792049726-13.97 125.64492550122402-14.036000000000001 126.4098382434043-14.234Q126.4098382434043-14.234 126.4098382434043-14.234M41.606899354185934 0.528Q37.308630965348414 1.9360000000000002 33.053033705842346 3.102 32.09504024260186-0.539 30.794375650029938-3.9380000000000006C30.00811379795194-6.171000000000001 29.17245597799601-8.294 28.313220980525525-10.340000000000002 27.476831628025945-12.232 26.592985904436222-14.025 25.665563003331947-15.741000000000001Q24.37705953840512-18.018 23.17963663730085-19.734C22.703086314393815-19.470000000000002 22.210415185062367-19.228 21.73968365251871-18.997Q21.17834808785299-18.876 20.603133329611676-18.733000000000004 18.73675752234409-18.073 16.880079699015468-17.468000000000004 16.95212049194911-6.534000000000001 16.90972507440296 5.049 13.313604267978546 5.027000000000001 9.748517010158823 4.829 9.056998977955264-21.307000000000002 7.603219408149012-43.120000000000005C9.630279732742391-44.748000000000005 11.709581670184601-46.332 13.827246026900049-47.85 15.850729173978877-49.401 17.894212321057708-50.952000000000005 19.94187667777316-52.470000000000006 24.716252327803094-56.40800000000001 29.499815960085648-59.037000000000006 33.87244007419923-60.016000000000005 34.36795684850158-60.104000000000006 34.843775638864955-60.13700000000001 35.291836042077165-60.126 38.96110450953351-59.89500000000001 41.02746039204723-56.188 40.633702319371366-49.588Q40.34938085026942-35.442 31.366891402287543-25.333000000000002 32.48371027126975-23.727000000000004 33.94148220365292-21.219C34.96593195936471-19.316 35.9332273600474-17.259 36.85306638963994-15.103000000000002 37.77993227384002-12.76 38.639643803010976-10.263000000000002 39.43995936430401-7.656000000000001Q40.749764923910696-3.6850000000000005 41.606899354185934 0.528 41.606899354185934 0.528 41.606899354185934 0.528M103.01164238787212-39.765Q92.69375650029934-39.38 82.26919278939798-38.39C81.3971527826526-32.934000000000005 81.46911946990437-27.841 82.45711293314486-24.200000000000003 83.81898558996092-20.581000000000003 85.97028768464078-18.887000000000004 88.5369655079694-19.492 90.1469655079694-19.492 91.83454937948112-19.932000000000002 93.56777752571679-20.801000000000002 94.84415333298438-21.461000000000002 96.14901905994678-22.396 97.45849551302844-23.584000000000003Q96.62793211660235-16.038 95.80512710732745-8.536 95.06935533218194-7.766 93.93552315382422-7.007000000000001C93.02332855619325-6.314000000000001 92.11471113607683-5.698 91.21936887741393-5.214Q89.78359710226842-4.444000000000001 88.19437565002994-3.9380000000000006C87.07006693997174-3.63 85.96903339136703-3.4540000000000006 84.91097298815482-3.4650000000000003 82.41024145561119-3.234 80.14286556972476-4.213 78.20720774976884-6.336 76.63142242939132-8.118 75.41183840064194-10.956000000000001 74.65996574382588-14.575000000000001 73.94451590949527-18.117 73.65574389849327-22.264 73.81485777506403-26.796000000000003 74.00901189423665-31.867 74.57583714274072-37.18 75.50429997197156-42.559 76.46362183416764-48.510000000000005 77.89264168030267-54.516000000000005 79.58321862196075-59.510000000000005 80.8664332229644-62.931000000000004 82.47085588821221-66.132 84.35157387552387-68.915 86.08349992707967-71.47800000000001 88.02202331676035-73.568 90.01998968953684-75.031 91.95631848158656-76.42800000000001 93.88984864388325-77.242 95.73894259570015-77.40700000000001 99.62725799975553-78.07800000000002 102.89248630322884-75.66900000000001 104.70070129732663-70.89500000000001 106.32107741906951-64.99900000000001 106.36766837767254-57.607 104.25462191278646-46.871 104.2510447352719-46.794000000000004 104.23746755775736-46.717000000000006 104.2238903802428-46.64 104.02605150788791-45.51800000000001 103.8340314258964-44.429 103.64201134390487-43.34 103.44253489082323-42.152 103.23111884095377-40.953 103.01164238787212-39.765Q103.01164238787212-39.765 103.01164238787212-39.765M72.37437407765343-36.718Q61.35004544284135-32.043 50.37226713093631-27.632000000000005C49.94733446400217-23.067 50.49550244288209-19.03 51.891938810599534-16.401 53.558073162255944-13.827000000000002 55.889026225656906-12.925 58.47104630764843-14.014000000000001 60.1641469534625-14.542000000000002 61.9128918740005-15.499 63.66758308532347-16.830000000000002 64.94214679622485-17.82 66.23744203966989-19.041 67.51152921887078-20.482000000000003Q67.21285840401464-13.684000000000001 66.90255000843173-6.820000000000001C66.28483863649842-6.039000000000001 65.66070444207966-5.335 65.03014742517546-4.708000000000001 64.13437565002994-3.9380000000000006 63.25606024597455-3.2670000000000003 62.37520121300931-2.6950000000000003 61.33076500252952-2.0460000000000003 60.30184556635207-1.4850000000000003 59.284261694840346-1.045 58.15564427472393-0.42900000000000005 57.04 0 55.947630886729584 0.29700000000000004 53.439013466613176 0.913 51.07659733812489 0.47300000000000003 48.964865726962415-0.935 47.19597976077083-2.189 45.7222615376027-4.323 44.66073791206552-7.15 43.58205993149925-9.823 42.87260340317146-13.002 42.60715356884084-16.544 42.3757104285074-20.449 42.47530083677864-24.53 42.95234761614003-28.710000000000004 43.37891786380093-33.341 44.29264246649094-38.126 45.660548278817565-42.878 46.80462191278646-46.871 48.36093715960419-50.82000000000001 50.21264168030268-54.516000000000005 51.89973547488192-57.959 53.73226555855979-60.412000000000006 55.709151367513726-62.436 57.660218386104276-64.427 59.69176193639531-65.967 61.69632564729669-66.95700000000001 65.81976177915766-69.245 69.56860073013138-68.72800000000001 71.93060088736904-65.45 74.20639975297854-61.11600000000001 74.71807796940129-53.526 73.25140731178281-43.45 73.23395094069267-43.351 73.22231335996591-43.285000000000004 73.20873618245136-43.208000000000006 73.09089731009647-42.086 72.95305843774156-40.964000000000006 72.81521956538667-39.842 72.68289746733412-38.80800000000001 72.53057536928156-37.77400000000001 72.37437407765343-36.718Q72.37437407765343-36.718 72.37437407765343-36.718M173.97603315551055-8.371C176.49058332117994-11.913 178.51871066436388-15.532 179.9768380075478-19.151000000000003 181.50393180212706-22.594 182.4626631774331-26.103 182.81751535916348-29.59Q183.26705875221685-34.408 182.2138035155172-38.64300000000001C181.49749464822136-41.613 180.30760860341096-44.50600000000001 178.72087021963247-47.190000000000005Q176.38507135402295-51.52400000000001 173.10186313254115-55.022000000000006C171.00439321621903-57.475 168.6492119279636-59.147000000000006 166.20377563886495-60.13700000000001 163.8308829786762-61.028 161.38639975297855-61.11600000000001 159.04062797783303-60.346000000000004 156.4996414444462-59.43300000000001 154.09960797446033-57.61800000000001 151.8757893413346-54.307 149.26007812663894-50.248000000000005 146.96622602352735-45.12200000000001 145.12987730672376-39.358000000000004 143.1577097995568-33.56100000000001 141.66826043693914-27.269000000000002 140.7891130903825-20.922 140.06646905151504-15.576000000000002 139.94873775482787-10.428 140.43574468468154-5.8740000000000006Q141.27284564497091 0.15400000000000003 143.73859749536254 3.7510000000000003 146.23344329757109 7.183000000000001 150.13840305496925 7.722C152.6118527320622 7.986000000000001 155.35853055539081 7.381 158.24098015386497 6.006 160.98209418767337 4.752000000000001 163.78316120626394 2.761 166.45151008030518 0.275 169.24537572864875-2.299 171.8171272645651-5.258000000000001 173.97603315551055-8.371Q173.97603315551055-8.371 173.97603315551055-8.371M151.63874334816148-33.737C150.4161327792799-30.206000000000003 149.45085108106684-26.433000000000003 148.78587139891485-22.605000000000004 148.1936903465159-19.360000000000003 147.9673280844803-16.148 148.12363695177618-13.178 148.29007331949362-10.549000000000001 148.8405163812082-8.283000000000001 149.7559996855247-6.556 150.8095433930534-4.8180000000000005 152.22946290784967-3.74 153.88545621385248-3.3770000000000002Q156.3771408097971-2.706 159.09437565002995-3.9380000000000006C160.84208702196324-4.719 162.60514065255947-5.984000000000001 164.24414057394063-7.623 165.99641565677533-9.394 167.57718065930484-11.440000000000001 168.89510001686347-13.640000000000002 170.4834488909047-16.126 171.8073145392483-18.700000000000003 172.86087817153086-21.329 173.89504583593546-23.848000000000003 174.65279067785465-26.444000000000003 175.12053551977382-29.04 175.50009245805919-31.306000000000004 175.52546818670797-33.605000000000004 175.22114593141777-35.849000000000004 174.94966932109844-37.93900000000001 174.3526759364768-39.941 173.46270940646266-41.75600000000001 172.4934744089922-43.80200000000001 171.22380989503907-45.562000000000005 169.76850110636204-46.89300000000001 168.32870909198738-48.312000000000005 166.7077560285864-49.214000000000006 165.02818554506902-49.50000000000001Q162.60189022300517-49.918000000000006 160.3400446566531-48.43300000000001C158.68668900999586-47.223000000000006 157.13277634643438-45.386 155.78158182742226-43.054 154.20250142083736-40.337 152.80583714274073-37.18 151.63874334816148-33.737Q151.63874334816148-33.737 151.63874334816148-33.737M16.070165777552802-41.855Q16.439474880705138-33.968 16.71538132198237-25.608000000000004 18.38175712924996-26.268 20.052012130093132-26.950000000000003C21.74972350202644-27.731 23.448468422564446-28.688 25.154065682070517-29.854000000000003 26.44535423151838-30.712000000000003 27.714830684600035-31.900000000000002 28.882797057376518-33.363 29.84972988154831-34.650000000000006 30.64709222220273-36.223000000000006 31.183850530735075-37.906000000000006Q31.902803436898388-40.282000000000004 31.953648924631633-43.406000000000006C31.998467636376184-45.078 31.73061521878929-46.508 31.182937316841844-47.542 30.660044656653085-48.43300000000001 29.871507721740397-48.89500000000001 28.907628528164807-48.873000000000005 27.787930544225844-48.818000000000005 26.57198425344088-48.444 25.311729252597708-47.76200000000001 23.837595058178945-47.05800000000001 22.35436691194329-46.18900000000001 20.871742797829704-45.21000000000001 19.261662312625976-44.132 17.65382344027108-43.010000000000005 16.070165777552802-41.855Q16.070165777552802-41.855 16.070165777552802-41.855M51.66337399903459-38.357Q58.874346987189426-41.82200000000001 66.1008367496466-45.37500000000001C66.36069570399302-47.586 66.46503788403709-49.709 66.40446732190088-51.634 66.33510482400881-53.339000000000006 66.09082958393647-54.846000000000004 65.67642684344254-56.01200000000001 65.22456773185847-57.07900000000001 64.58900394233827-57.728 63.81003749094296-57.904 62.9427086202744-58.146 61.95943345882088-58.01400000000001 60.9402120065824-57.508 59.83935297361716-56.936 58.68733289162565-55.84700000000001 57.57742692206137-54.373000000000005 56.59855450110178-53.075 55.669252563659576-51.49100000000001 54.85891707761267-49.731 54.07246078514136-47.99300000000001 53.40078973442874-46.11200000000001 52.897179086928325-44.220000000000006 52.37193085870115-42.26200000000001 51.96474303368618-40.293000000000006 51.667253192610175-38.379000000000005Q51.66337399903459-38.357 51.66337399903459-38.357M84.50640691868868-51.64500000000001Q91.37903103280226-52.62400000000001 98.1779504689797-53.18500000000001 98.8568093447073-57.035000000000004 98.78739983159737-59.477000000000004C98.79924539794945-60.962 98.62975539963578-62.326 98.29311104629303-63.536 97.94707072507234-64.63600000000001 97.41611766167138-65.538 96.75891629142441-66.12100000000001 95.98141290511641-66.759 95.06602363123565-67.012 94.08274846978215-66.88Q92.36529209869201-66.781 90.94448008094463-65.47200000000001C90.00646669295028-64.74600000000001 89.11802378847331-63.734 88.31272854502828-62.513000000000005Q87.17166152643772-60.522000000000006 86.26434620100116-58.212C85.62103756956179-56.265 85.01566184091303-53.96600000000001 84.50640691868868-51.64500000000001Q84.50640691868868-51.64500000000001 84.50640691868868-51.64500000000001"
                transform="translate(-7.603219509124756, 87.74578857421875)"></path>
            </g>
            <defs>
              <pattern id="p1qomFu8Huyuf9rbijHD7" x="0" y="0" width="50" height="50" viewBox="0 0 100 100"
                preserveAspectRatio="xMidYMid meet"
                patternTransform="matrix(0.9848,0.1736,-0.1736,0.9848,9.442,-7.9228)" patternUnits="userSpaceOnUse">
                <g data-gra="path-name"><svg width="100" height="100" viewBox="0 0 100 100"
                    xmlns="http://www.w3.org/2000/svg">
                    <g stroke="none" stroke-width="1" fill-rule="evenodd">
                      <g transform="translate(-1070.000000, -2171.000000)">
                        <path
                          d="M1095.00604,2265.54544 L1095.00604,2265.54898 L1105.92937,2265.54898 L1105.92937,2270.99994 L1094.99396,2270.99994 L1094.99396,2270.9964 L1082.58125,2270.9964 L1082.58125,2265.54544 L1095.00604,2265.54544 Z M1130.93527,2265.54544 L1130.93527,2270.9964 L1120.00006,2270.9964 L1120.00006,2270.99994 L1107.57527,2270.99994 L1107.57527,2265.54898 L1120.00006,2265.54898 L1120.00006,2265.54544 L1130.93527,2265.54544 Z M1145.00592,2265.54544 L1145.00592,2265.54898 L1155.92946,2265.54898 L1155.92946,2270.99994 L1144.99404,2270.99994 L1144.99404,2270.9964 L1132.58112,2270.9964 L1132.58112,2265.54544 L1145.00592,2265.54544 Z M1169.99979,2265.54904 L1169.99979,2271 L1157.57521,2271 L1157.57521,2265.54904 L1169.99979,2265.54904 Z M1080.93521,2265.5455 L1080.93521,2270.99646 L1070,2270.99646 L1070,2265.5455 L1080.93521,2265.5455 Z M1118.31292,2253.10879 L1118.31292,2263.92048 L1094.99396,2263.92048 L1094.99396,2253.10879 L1118.31292,2253.10879 Z M1168.31292,2253.10879 L1168.31292,2263.92048 L1144.99396,2263.92048 L1144.99396,2253.10879 L1168.31292,2253.10879 Z M1093.31896,2253.10525 L1093.31896,2263.91694 L1070,2263.91694 L1070,2253.10525 L1093.31896,2253.10525 Z M1143.31896,2253.10525 L1143.31896,2263.91694 L1120,2263.91694 L1120,2253.10525 L1143.31896,2253.10525 Z M1169.99983,2240.54731 L1169.99983,2251.44923 L1157.57525,2251.44923 L1157.57525,2240.54731 L1169.99983,2240.54731 Z M1095.00596,2240.54375 L1095.00596,2240.54729 L1105.92929,2240.54729 L1105.92929,2251.44921 L1094.99408,2251.44921 L1094.99408,2251.44567 L1082.58117,2251.44567 L1082.58117,2240.54375 L1095.00596,2240.54375 Z M1145.006,2240.54373 L1145.006,2240.54727 L1155.92933,2240.54727 L1155.92933,2251.44919 L1144.99392,2251.44919 L1144.99392,2251.44564 L1132.58121,2251.44564 L1132.58121,2240.54373 L1145.006,2240.54373 Z M1130.93521,2240.54377 L1130.93521,2251.44569 L1120,2251.44569 L1120,2251.44923 L1107.57521,2251.44923 L1107.57521,2240.54731 L1120,2240.54731 L1120,2240.54377 L1130.93521,2240.54377 Z M1080.93521,2240.54375 L1080.93521,2251.44567 L1070,2251.44567 L1070,2240.54375 L1080.93521,2240.54375 Z M1168.31292,2228.10702 L1168.31292,2238.91871 L1144.99396,2238.91871 L1144.99396,2228.10702 L1168.31292,2228.10702 Z M1118.31292,2228.10702 L1118.31292,2238.91871 L1094.99396,2238.91871 L1094.99396,2228.10702 L1118.31292,2228.10702 Z M1093.31896,2228.10348 L1093.31896,2238.91538 L1070,2238.91538 L1070,2228.10348 L1093.31896,2228.10348 Z M1143.31896,2228.10369 L1143.31896,2238.91538 L1120,2238.91538 L1120,2228.10369 L1143.31896,2228.10369 Z M1130.93521,2215.5525 L1130.93521,2226.444 L1120,2226.444 L1120,2226.44754 L1107.57521,2226.44754 L1107.57521,2215.55604 L1120,2215.55604 L1120,2215.5525 L1130.93521,2215.5525 Z M1145.006,2215.55248 L1145.006,2215.55602 L1155.92933,2215.55602 L1155.92933,2226.44752 L1144.99392,2226.44752 L1144.99392,2226.44398 L1132.58121,2226.44398 L1132.58121,2215.55248 L1145.006,2215.55248 Z M1095.00596,2215.55246 L1095.00596,2215.556 L1105.92929,2215.556 L1105.92929,2226.4475 L1094.99408,2226.4475 L1094.99408,2226.44396 L1082.58117,2226.44396 L1082.58117,2215.55246 L1095.00596,2215.55246 Z M1169.99983,2215.55613 L1169.99983,2226.44762 L1157.57525,2226.44762 L1157.57525,2215.55613 L1169.99983,2215.55613 Z M1080.93521,2215.55256 L1080.93521,2226.44406 L1070,2226.44406 L1070,2215.55256 L1080.93521,2215.55256 Z M1168.31292,2203.11587 L1168.31292,2213.92757 L1144.99396,2213.92757 L1144.99396,2203.11587 L1168.31292,2203.11587 Z M1118.31292,2203.11587 L1118.31292,2213.92757 L1094.99396,2213.92757 L1094.99396,2203.11587 L1118.31292,2203.11587 Z M1093.31896,2203.11233 L1093.31896,2213.92403 L1070,2213.92403 L1070,2203.11233 L1093.31896,2203.11233 Z M1143.31896,2203.11233 L1143.31896,2213.92403 L1120,2213.92403 L1120,2203.11233 L1143.31896,2203.11233 Z M1095.00596,2190.55081 L1095.00596,2190.55436 L1105.92929,2190.55436 L1105.92929,2201.45627 L1094.99408,2201.45627 L1094.99408,2201.45273 L1082.58117,2201.45273 L1082.58117,2190.55081 L1095.00596,2190.55081 Z M1145.006,2190.55079 L1145.006,2190.55433 L1155.92933,2190.55433 L1155.92933,2201.45625 L1144.99392,2201.45625 L1144.99392,2201.45271 L1132.58121,2201.45271 L1132.58121,2190.55079 L1145.006,2190.55079 Z M1169.99983,2190.55425 L1169.99983,2201.45617 L1157.57525,2201.45617 L1157.57525,2190.55425 L1169.99983,2190.55425 Z M1130.93521,2190.55079 L1130.93521,2201.45271 L1120,2201.45271 L1120,2201.45625 L1107.57521,2201.45625 L1107.57521,2190.55433 L1120,2190.55433 L1120,2190.55079 L1130.93521,2190.55079 Z M1080.93521,2190.55088 L1080.93521,2201.45279 L1070,2201.45279 L1070,2190.55088 L1080.93521,2190.55088 Z M1118.31292,2178.11431 L1118.31292,2188.92601 L1094.99396,2188.92601 L1094.99396,2178.11431 L1118.31292,2178.11431 Z M1168.31292,2178.1141 L1168.31292,2188.9258 L1144.99396,2188.9258 L1144.99396,2178.1141 L1168.31292,2178.1141 Z M1093.31896,2178.11077 L1093.31896,2188.92246 L1070,2188.92246 L1070,2178.11077 L1093.31896,2178.11077 Z M1143.31896,2178.11056 L1143.31896,2188.92246 L1120,2188.92246 L1120,2178.11056 L1143.31896,2178.11056 Z M1095.00604,2171 L1095.00604,2171.00354 L1105.92937,2171.00354 L1105.92937,2176.4545 L1094.99396,2176.4545 L1094.99396,2176.45096 L1082.58125,2176.45096 L1082.58125,2171 L1095.00604,2171 Z M1130.93527,2171 L1130.93527,2176.45096 L1120.00006,2176.45096 L1120.00006,2176.4545 L1107.57527,2176.4545 L1107.57527,2171.00354 L1120.00006,2171.00354 L1120.00006,2171 L1130.93527,2171 Z M1145.00592,2171 L1145.00592,2171.00354 L1155.92946,2171.00354 L1155.92946,2176.4545 L1144.99404,2176.4545 L1144.99404,2176.45096 L1132.58112,2176.45096 L1132.58112,2171 L1145.00592,2171 Z M1169.99979,2171.00354 L1169.99979,2176.4545 L1157.57521,2176.4545 L1157.57521,2171.00354 L1169.99979,2171.00354 Z M1080.93521,2171 L1080.93521,2176.45096 L1070,2176.45096 L1070,2171 L1080.93521,2171 Z">
                        </path>
                      </g>
                    </g>
                  </svg>
                </g>
              </pattern>
            </defs>
          </g>
        </g>
      </g>
      <g data-gra="path-slogan" fill-rule="evenodd" class="tp-slogan iconsvg-slogansvg" fill="#333"
        transform="matrix(1,0,0,1,-3.1256179809570312,101.52828979492188)" opacity="0">
        <rect width="0" height="0"></rect>
        <rect x="184.60000610351562" width="0" height="0"></rect>
        <g transform="translate(0,0)">
          <g transform="scale(1)">
            <path
              d="M 22.2 10.8 L 22.4 5.6 L 23.1 5.7 L 22.9 8.6 A 33.9 33.9 0 0 0 22.8 9.4 A 33.9 33.9 0 0 1 22.8 10.3 L 22.8 10.3 A 35.8 35.8 0 0 1 23.2 9.5 A 42 42 0 0 0 23.5 8.7 L 24.9 6.2 L 25.5 6.4 L 25.5 9.3 A 203.3 203.3 0 0 1 25.5 10.1 A 214.6 214.6 0 0 1 25.4 10.9 L 25.5 11 A 182.3 182.3 0 0 1 25.8 10.2 A 50.1 50.1 0 0 1 26.2 9.4 L 27.4 6.9 L 28 7 L 25.7 11.7 L 24.9 11.5 L 25 8.3 A 19.9 19.9 0 0 1 25 7.7 A 122.9 122.9 0 0 0 25 7.1 L 25 7.1 A 28 28 0 0 1 24.7 7.7 A 28 28 0 0 0 24.4 8.2 L 22.9 11 L 22.2 10.8 Z M 165.5 9.1 L 164 4.2 L 164.8 4 L 166.5 6.3 L 167.2 7.2 L 167.2 7.2 L 167.3 6.1 L 167.4 3.2 L 168.1 3 L 169.6 7.9 L 169 8.1 L 168.2 5.4 A 11.6 11.6 0 0 1 168 4.6 A 30.9 30.9 0 0 1 167.9 3.9 L 167.8 3.9 L 167.8 5.1 L 167.6 8 L 167.2 8.1 L 165.5 5.8 L 164.8 4.8 L 164.8 4.8 A 105.4 105.4 0 0 0 165 5.5 A 10.1 10.1 0 0 1 165.3 6.2 L 166.1 8.9 L 165.5 9.1 Z M 148.4 13.5 L 147.2 8.5 L 147.9 8.3 L 150.4 11.1 L 151.2 12 L 151.2 12 A 150.2 150.2 0 0 0 151 11.2 A 12.6 12.6 0 0 1 150.8 10.4 L 150.2 7.8 L 150.8 7.7 L 151.9 12.7 L 151.3 12.8 L 148.7 10.1 L 148 9.2 L 147.9 9.2 A 66.4 66.4 0 0 1 148.2 10 Q 148.3 10.3 148.4 10.7 L 149 13.4 L 148.4 13.5 Z M 33.9 13.6 L 35 8.6 L 35.6 8.8 L 35.2 10.9 L 37.5 11.4 L 38 9.3 L 38.6 9.4 L 37.5 14.4 L 36.9 14.3 L 37.4 11.9 L 35.1 11.4 L 34.6 13.8 L 33.9 13.6 Z M 100.5 19.6 L 100.2 14.5 L 103.2 14.3 L 103.2 14.9 L 100.9 15 L 101 16.6 L 102.9 16.5 L 103 17.1 L 101 17.2 L 101.1 19 L 103.5 18.9 L 103.5 19.5 L 100.5 19.6 Z M 135.4 16 L 134.5 11 L 137.4 10.5 L 137.5 11 L 135.2 11.4 L 135.5 13 L 137.4 12.6 L 137.5 13.2 L 135.6 13.5 L 135.9 15.4 L 138.3 14.9 L 138.4 15.5 L 135.4 16 Z M 74.6 19.3 L 74.9 14.2 L 77.9 14.3 L 77.8 14.9 L 75.5 14.7 L 75.5 16.3 L 77.4 16.5 L 77.4 17 L 75.4 16.9 L 75.3 18.8 L 77.7 18.9 L 77.7 19.4 L 74.6 19.3 Z M 16 9.1 L 17.4 4.2 L 20.2 5 L 20.1 5.5 L 17.9 4.9 L 17.4 6.4 L 19.3 6.9 L 19.2 7.5 L 17.3 6.9 L 16.8 8.7 L 19.1 9.4 L 18.9 9.9 L 16 9.1 Z M 44.6 13.6 L 45.1 10.6 L 45.7 10.7 L 45.2 13.7 A 2.7 2.7 0 0 0 45.2 14.5 Q 45.2 14.8 45.4 15 A 0.9 0.9 0 0 0 45.7 15.4 A 1.3 1.3 0 0 0 46.1 15.5 A 1.3 1.3 0 0 0 46.6 15.5 A 0.9 0.9 0 0 0 47 15.3 Q 47.2 15.2 47.4 14.9 A 2.7 2.7 0 0 0 47.6 14.1 L 48.1 11.1 L 48.7 11.2 L 48.2 14.2 A 3.3 3.3 0 0 1 47.9 15.2 A 1.8 1.8 0 0 1 47.4 15.8 A 1.4 1.4 0 0 1 46.8 16.1 A 2.3 2.3 0 0 1 46 16.1 A 2.3 2.3 0 0 1 45.3 15.8 Q 45 15.7 44.8 15.4 A 1.8 1.8 0 0 1 44.5 14.6 A 3.3 3.3 0 0 1 44.6 13.6 Z M 176.3 5 L 176.5 4.5 A 2.1 2.1 0 0 0 177.2 4.7 A 1.8 1.8 0 0 0 178 4.6 A 1.2 1.2 0 0 0 178.7 4.1 A 0.7 0.7 0 0 0 178.8 3.5 Q 178.7 3.3 178.6 3.2 A 0.7 0.7 0 0 0 178.4 3 Q 178.2 3 178 2.9 A 21.4 21.4 0 0 0 177.7 2.9 L 176.9 2.8 A 3.5 3.5 0 0 1 176.5 2.8 A 1.5 1.5 0 0 1 176.1 2.6 A 1.3 1.3 0 0 1 175.7 2.4 A 1.2 1.2 0 0 1 175.5 1.9 A 1.2 1.2 0 0 1 175.4 1.4 A 1.3 1.3 0 0 1 175.6 0.9 A 1.6 1.6 0 0 1 176 0.4 A 2 2 0 0 1 176.5 0.1 Q 177 0 177.4 0 A 2.1 2.1 0 0 1 178.2 0.2 L 178 0.7 A 1.8 1.8 0 0 0 177.4 0.6 A 1.5 1.5 0 0 0 176.7 0.7 A 1.1 1.1 0 0 0 176.1 1.1 A 0.7 0.7 0 0 0 176.1 1.7 Q 176.1 1.9 176.2 2 A 0.8 0.8 0 0 0 176.5 2.1 A 1.6 1.6 0 0 0 176.8 2.2 A 4 4 0 0 0 177.1 2.2 L 177.9 2.3 A 3.1 3.1 0 0 1 178.4 2.3 A 1.5 1.5 0 0 1 178.8 2.5 A 1.2 1.2 0 0 1 179.1 2.8 A 1.4 1.4 0 0 1 179.4 3.2 A 1.4 1.4 0 0 1 179.5 3.8 A 1.4 1.4 0 0 1 179.3 4.3 Q 179.1 4.6 178.9 4.8 A 2.2 2.2 0 0 1 178.2 5.2 A 2.5 2.5 0 0 1 177.2 5.3 A 2.5 2.5 0 0 1 176.3 5 Z M 83 19 L 83.4 18.5 A 2.1 2.1 0 0 0 84.1 19 A 1.8 1.8 0 0 0 84.8 19.2 A 1.2 1.2 0 0 0 85.6 19 A 0.7 0.7 0 0 0 85.9 18.4 A 0.8 0.8 0 0 0 85.8 18.1 A 0.7 0.7 0 0 0 85.7 17.8 A 1.3 1.3 0 0 0 85.4 17.7 A 21.4 21.4 0 0 0 85.1 17.5 L 84.3 17.1 A 3.5 3.5 0 0 1 84 16.9 A 1.5 1.5 0 0 1 83.7 16.7 A 1.3 1.3 0 0 1 83.4 16.3 A 1.2 1.2 0 0 1 83.3 15.8 Q 83.3 15.5 83.5 15.3 A 1.3 1.3 0 0 1 83.8 14.8 Q 84 14.7 84.3 14.6 A 2 2 0 0 1 85 14.5 Q 85.4 14.5 85.8 14.7 Q 86.2 14.9 86.5 15.1 L 86.1 15.6 A 1.8 1.8 0 0 0 85.6 15.2 A 1.5 1.5 0 0 0 85 15 A 1.1 1.1 0 0 0 84.3 15.2 A 0.7 0.7 0 0 0 84 15.8 A 0.6 0.6 0 0 0 84.1 16.1 A 0.8 0.8 0 0 0 84.3 16.3 Q 84.4 16.4 84.5 16.5 A 4 4 0 0 0 84.8 16.6 L 85.5 17 A 3.1 3.1 0 0 1 86 17.2 A 1.5 1.5 0 0 1 86.3 17.5 A 1.2 1.2 0 0 1 86.5 17.9 A 1.4 1.4 0 0 1 86.6 18.4 A 1.4 1.4 0 0 1 86.4 18.9 A 1.4 1.4 0 0 1 86.1 19.4 Q 85.8 19.6 85.5 19.7 A 2.2 2.2 0 0 1 84.8 19.8 A 2.5 2.5 0 0 1 83.8 19.6 A 2.5 2.5 0 0 1 83 19 Z M 116 18.6 L 113.9 13.6 L 114.6 13.6 L 115.6 16.2 Q 115.8 16.7 116 17.1 A 16.7 16.7 0 0 0 116.3 17.9 L 116.3 17.9 A 31.7 31.7 0 0 0 116.5 17 Q 116.6 16.6 116.7 16.1 L 117.2 13.3 L 117.9 13.2 L 116.7 18.5 L 116 18.6 Z M 68.7 18.8 L 67.9 18.8 L 66.9 16.5 L 66 16.4 L 65.8 18.6 L 65.1 18.5 L 65.6 13.4 L 67.2 13.6 Q 67.6 13.6 67.9 13.7 Q 68.2 13.8 68.4 14 A 1.2 1.2 0 0 1 68.8 14.5 A 1.5 1.5 0 0 1 68.8 15.2 A 1.4 1.4 0 0 1 68.4 16.1 A 1.6 1.6 0 0 1 67.6 16.5 L 68.7 18.8 Z M 82.4 19.6 L 81.7 19.6 L 80.5 17.4 L 79.6 17.4 L 79.5 19.5 L 78.9 19.5 L 79.1 14.4 L 80.7 14.4 A 3.3 3.3 0 0 1 81.4 14.5 A 1.5 1.5 0 0 1 81.9 14.8 Q 82.2 15 82.3 15.3 A 1.5 1.5 0 0 1 82.4 15.9 A 1.4 1.4 0 0 1 82 16.9 A 1.6 1.6 0 0 1 81.2 17.4 L 82.4 19.6 Z M 99.4 19.6 L 98.6 19.6 L 97.3 17.5 L 96.4 17.5 L 96.5 19.7 L 95.8 19.7 L 95.7 14.6 L 97.3 14.6 A 3.3 3.3 0 0 1 98 14.6 A 1.5 1.5 0 0 1 98.6 14.8 A 1.2 1.2 0 0 1 99 15.3 A 1.5 1.5 0 0 1 99.1 15.9 Q 99.1 16.5 98.8 16.9 A 1.6 1.6 0 0 1 98 17.4 L 99.4 19.6 Z M 6.8 1.4 L 6.4 1.7 A 1.7 1.7 0 0 0 6 1.2 Q 5.9 1 5.5 0.9 A 1.5 1.5 0 0 0 4.9 0.8 A 1.4 1.4 0 0 0 4.3 1 Q 4 1.2 3.7 1.5 A 2.9 2.9 0 0 0 3.3 2.3 A 3.1 3.1 0 0 0 3.2 3.2 A 2.1 2.1 0 0 0 3.2 3.9 A 1.4 1.4 0 0 0 3.6 4.5 A 1.4 1.4 0 0 0 4.2 4.8 A 1.4 1.4 0 0 0 4.8 4.9 A 2 2 0 0 0 5.5 4.7 L 5.7 5.2 A 2.3 2.3 0 0 1 4.8 5.5 A 1.9 1.9 0 0 1 4 5.4 A 2.2 2.2 0 0 1 3.2 4.9 A 2 2 0 0 1 2.7 4.2 A 2.4 2.4 0 0 1 2.5 3.2 A 3.5 3.5 0 0 1 2.7 2.1 A 3.4 3.4 0 0 1 3.2 1.1 A 2.5 2.5 0 0 1 3.9 0.5 A 2.1 2.1 0 0 1 4.8 0.2 A 2.2 2.2 0 0 1 5.7 0.3 A 1.7 1.7 0 0 1 6.4 0.8 A 2.2 2.2 0 0 1 6.8 1.4 Z M 94.6 15.2 L 94.2 15.6 A 1.7 1.7 0 0 0 93.8 15.2 A 1.2 1.2 0 0 0 93.2 15.1 A 1.5 1.5 0 0 0 92.6 15.3 A 1.4 1.4 0 0 0 92 15.7 A 2 2 0 0 0 91.7 16.3 A 2.9 2.9 0 0 0 91.6 17.2 A 3.1 3.1 0 0 0 91.7 18.1 Q 91.8 18.4 92.1 18.7 Q 92.3 19 92.6 19.1 A 1.4 1.4 0 0 0 93.2 19.3 A 1.4 1.4 0 0 0 93.9 19.1 A 2 2 0 0 0 94.4 18.7 L 94.8 19.1 A 2.3 2.3 0 0 1 94.1 19.6 A 1.9 1.9 0 0 1 93.2 19.8 A 2.2 2.2 0 0 1 92.3 19.7 A 2 2 0 0 1 91.6 19.2 A 2.4 2.4 0 0 1 91.1 18.3 Q 90.9 17.8 90.9 17.2 A 3.4 3.4 0 0 1 91.1 16.1 A 2.5 2.5 0 0 1 91.6 15.3 Q 91.9 14.9 92.3 14.7 A 2.2 2.2 0 0 1 93.2 14.5 Q 93.7 14.5 94 14.7 A 2.2 2.2 0 0 1 94.6 15.2 Z M 140.4 15.1 L 140 13.2 L 137.9 10.4 L 138.6 10.3 L 139.5 11.5 A 45.4 45.4 0 0 1 139.8 12 A 23.9 23.9 0 0 0 140.2 12.6 L 140.2 12.5 A 29 29 0 0 1 140.4 11.9 A 10.6 10.6 0 0 0 140.5 11.4 L 140.9 9.8 L 141.6 9.7 L 140.6 13.1 L 141 15 L 140.4 15.1 Z M 126.2 17.4 L 125.9 15.4 L 124 12.5 L 124.7 12.4 L 125.5 13.8 Q 125.7 14 125.8 14.3 A 23.9 23.9 0 0 0 126.2 14.8 L 126.2 14.8 A 29 29 0 0 1 126.4 14.2 A 10.6 10.6 0 0 0 126.6 13.6 L 127 12.1 L 127.7 12 L 126.6 15.4 L 126.9 17.3 L 126.2 17.4 Z M 107.5 19.2 L 106.9 17.7 L 105.1 17.8 L 104.7 19.4 L 104 19.4 L 105.4 14.2 L 106.2 14.2 L 108.2 19.2 L 107.5 19.2 Z M 122.3 17.9 L 121.8 13.4 L 120.2 13.5 L 120.2 13 L 123.9 12.5 L 123.9 13.1 L 122.4 13.3 L 123 17.8 L 122.3 17.9 Z M 50.4 16.7 L 51.1 12.2 L 49.5 11.9 L 49.6 11.4 L 53.3 12 L 53.2 12.5 L 51.7 12.3 L 51 16.8 L 50.4 16.7 Z M 109.7 19.1 L 109.4 14.5 L 107.9 14.6 L 107.8 14.1 L 111.6 13.8 L 111.6 14.4 L 110.1 14.5 L 110.4 19 L 109.7 19.1 Z M 30.8 12.9 L 31.8 8.5 L 30.3 8.1 L 30.4 7.6 L 34.1 8.4 L 33.9 9 L 32.4 8.6 L 31.4 13.1 L 30.8 12.9 Z M 174.1 6.5 L 172.6 2.1 L 171.2 2.6 L 171 2.1 L 174.6 0.9 L 174.7 1.4 L 173.3 1.9 L 174.7 6.2 L 174.1 6.5 Z M 55.2 17.4 L 55.8 12.3 L 57.3 12.5 A 3.4 3.4 0 0 1 58 12.7 A 1.7 1.7 0 0 1 58.6 12.9 Q 58.8 13.1 58.9 13.4 A 1.2 1.2 0 0 1 58.9 14 A 1.2 1.2 0 0 1 58.6 14.6 A 1.1 1.1 0 0 1 57.9 15 L 57.9 15 Q 58.4 15.1 58.7 15.5 A 1.1 1.1 0 0 1 58.9 16.3 A 1.4 1.4 0 0 1 58.7 17 A 1.3 1.3 0 0 1 58.2 17.4 Q 58 17.5 57.6 17.6 A 3.1 3.1 0 0 1 56.8 17.6 L 55.2 17.4 Z M 130.8 16.8 L 130 11.7 L 131.5 11.5 A 3.4 3.4 0 0 1 132.2 11.4 A 1.7 1.7 0 0 1 132.8 11.6 A 1 1 0 0 1 133.2 11.9 Q 133.3 12.1 133.4 12.4 Q 133.5 12.8 133.3 13.1 A 1.1 1.1 0 0 1 132.7 13.7 L 132.7 13.7 A 1.6 1.6 0 0 1 133.6 13.9 Q 134 14.2 134.1 14.7 A 1.4 1.4 0 0 1 134 15.4 A 1.3 1.3 0 0 1 133.7 15.9 Q 133.5 16.1 133.1 16.3 A 3.1 3.1 0 0 1 132.4 16.5 L 130.8 16.8 Z M 159.7 10.7 L 158.4 5.8 L 159 5.6 L 160.2 10 L 162.4 9.4 L 162.5 10 L 159.7 10.7 Z M 11.3 7.7 L 12.8 2.8 L 14 3.1 A 2.4 2.4 0 0 1 15.6 4.3 A 2.6 2.6 0 0 1 15.6 6.3 A 3.5 3.5 0 0 1 15.1 7.3 A 2.2 2.2 0 0 1 14.5 7.9 A 2 2 0 0 1 13.6 8.2 A 2.8 2.8 0 0 1 12.6 8.1 L 11.3 7.7 Z M 69.7 18.9 L 70.1 13.8 L 71.4 13.9 A 2.4 2.4 0 0 1 73.1 14.7 A 2.6 2.6 0 0 1 73.6 16.6 A 3.5 3.5 0 0 1 73.4 17.7 A 2.2 2.2 0 0 1 72.9 18.5 A 2 2 0 0 1 72.1 18.9 A 2.8 2.8 0 0 1 71.1 19 L 69.7 18.9 Z M 153.4 12.3 L 152.2 7.4 L 153.4 7 A 2.4 2.4 0 0 1 155.3 7.2 A 2.6 2.6 0 0 1 156.4 8.9 A 3.5 3.5 0 0 1 156.5 10 A 2.2 2.2 0 0 1 156.2 10.9 A 2 2 0 0 1 155.6 11.6 A 2.8 2.8 0 0 1 154.7 12 L 153.4 12.3 Z M 60.9 18 A 2.1 2.1 0 0 0 61.7 18.3 A 2.1 2.1 0 0 0 62.6 18.2 A 2 2 0 0 0 63.4 17.7 A 2.5 2.5 0 0 0 63.9 16.9 A 3.6 3.6 0 0 0 64.2 15.8 A 3.5 3.5 0 0 0 64.1 14.7 A 2.4 2.4 0 0 0 63.8 13.9 A 2 2 0 0 0 63.2 13.3 A 2.1 2.1 0 0 0 62.3 13 A 2.1 2.1 0 0 0 61.4 13.1 A 1.9 1.9 0 0 0 60.6 13.5 A 2.4 2.4 0 0 0 60.1 14.3 A 3.5 3.5 0 0 0 59.8 15.4 A 3.6 3.6 0 0 0 59.9 16.5 A 2.5 2.5 0 0 0 60.2 17.4 A 2 2 0 0 0 60.9 18 Z M 40 14.8 A 2.1 2.1 0 0 0 40.9 15.2 A 2.1 2.1 0 0 0 41.8 15.1 A 2 2 0 0 0 42.6 14.7 A 2.5 2.5 0 0 0 43.2 14 A 3.6 3.6 0 0 0 43.5 12.9 A 3.5 3.5 0 0 0 43.6 11.8 A 2.4 2.4 0 0 0 43.3 10.9 A 2 2 0 0 0 42.7 10.3 A 2.1 2.1 0 0 0 41.9 9.9 A 2.1 2.1 0 0 0 41 9.9 A 1.9 1.9 0 0 0 40.2 10.3 A 2.4 2.4 0 0 0 39.6 11.1 A 3.5 3.5 0 0 0 39.2 12.1 A 3.6 3.6 0 0 0 39.2 13.2 A 2.5 2.5 0 0 0 39.5 14.1 A 2 2 0 0 0 40 14.8 Z M 144.1 14.3 A 2.1 2.1 0 0 0 145.1 14.3 A 2.1 2.1 0 0 0 145.9 13.9 A 2 2 0 0 0 146.5 13.3 A 2.5 2.5 0 0 0 146.7 12.3 A 3.6 3.6 0 0 0 146.7 11.2 A 3.5 3.5 0 0 0 146.3 10.2 A 2.4 2.4 0 0 0 145.7 9.5 A 2 2 0 0 0 144.9 9.1 A 2.1 2.1 0 0 0 144 9.1 A 2.1 2.1 0 0 0 143.1 9.4 A 1.9 1.9 0 0 0 142.6 10.1 A 2.4 2.4 0 0 0 142.3 11 A 3.5 3.5 0 0 0 142.4 12.1 A 3.6 3.6 0 0 0 142.7 13.2 A 2.5 2.5 0 0 0 143.4 13.9 A 2 2 0 0 0 144.1 14.3 Z M 7.2 6.3 A 2.1 2.1 0 0 0 8 6.7 A 2.1 2.1 0 0 0 8.9 6.8 A 2 2 0 0 0 9.7 6.5 A 2.5 2.5 0 0 0 10.4 5.9 Q 10.7 5.4 10.9 4.8 A 3.5 3.5 0 0 0 11.1 3.8 A 2.4 2.4 0 0 0 10.9 2.8 A 2 2 0 0 0 10.4 2.1 A 2.1 2.1 0 0 0 9.7 1.7 A 2.1 2.1 0 0 0 8.8 1.6 A 1.9 1.9 0 0 0 7.9 1.8 A 2.4 2.4 0 0 0 7.3 2.5 A 3.5 3.5 0 0 0 6.8 3.5 A 3.6 3.6 0 0 0 6.6 4.6 A 2.5 2.5 0 0 0 6.7 5.5 A 2 2 0 0 0 7.2 6.3 Z M 61.8 17.7 A 1.3 1.3 0 0 0 62.4 17.6 A 1.4 1.4 0 0 0 62.9 17.3 A 2.1 2.1 0 0 0 63.3 16.6 A 3.2 3.2 0 0 0 63.5 15.8 A 3.1 3.1 0 0 0 63.5 14.9 Q 63.4 14.5 63.3 14.2 A 1.4 1.4 0 0 0 62.8 13.8 A 1.3 1.3 0 0 0 62.2 13.6 A 1.3 1.3 0 0 0 61.6 13.6 A 1.4 1.4 0 0 0 61.1 14 A 2 2 0 0 0 60.7 14.6 A 3.1 3.1 0 0 0 60.5 15.4 A 3.2 3.2 0 0 0 60.5 16.3 A 2.1 2.1 0 0 0 60.7 17 A 1.4 1.4 0 0 0 61.2 17.5 A 1.3 1.3 0 0 0 61.8 17.7 Z M 144.9 13.7 A 1.3 1.3 0 0 0 145.5 13.5 A 1.4 1.4 0 0 0 145.9 12.9 A 2.1 2.1 0 0 0 146.1 12.2 A 3.2 3.2 0 0 0 146 11.4 A 3.1 3.1 0 0 0 145.7 10.5 A 2 2 0 0 0 145.3 10 A 1.4 1.4 0 0 0 144.7 9.7 A 1.3 1.3 0 0 0 144.1 9.6 A 1.3 1.3 0 0 0 143.5 9.9 A 1.4 1.4 0 0 0 143.1 10.4 Q 143 10.7 143 11.1 Q 142.9 11.5 143 12 A 3.2 3.2 0 0 0 143.3 12.8 A 2.1 2.1 0 0 0 143.7 13.4 A 1.4 1.4 0 0 0 144.3 13.7 A 1.3 1.3 0 0 0 144.9 13.7 Z M 8.2 6.2 A 1.3 1.3 0 0 0 8.8 6.2 A 1.4 1.4 0 0 0 9.4 6 A 2.1 2.1 0 0 0 9.9 5.4 A 3.2 3.2 0 0 0 10.3 4.6 A 3.1 3.1 0 0 0 10.5 3.8 Q 10.5 3.4 10.4 3.1 A 1.4 1.4 0 0 0 10 2.5 A 1.3 1.3 0 0 0 9.5 2.2 A 1.3 1.3 0 0 0 8.9 2.2 A 1.4 1.4 0 0 0 8.3 2.4 Q 8 2.6 7.8 2.9 A 3.1 3.1 0 0 0 7.4 3.7 A 3.2 3.2 0 0 0 7.2 4.6 A 2.1 2.1 0 0 0 7.3 5.3 A 1.4 1.4 0 0 0 7.7 5.8 A 1.3 1.3 0 0 0 8.2 6.2 Z M 41 14.6 A 1.3 1.3 0 0 0 41.6 14.6 A 1.4 1.4 0 0 0 42.2 14.2 A 2.1 2.1 0 0 0 42.6 13.6 A 3.2 3.2 0 0 0 42.9 12.8 A 3.1 3.1 0 0 0 42.9 11.9 Q 42.9 11.5 42.7 11.2 A 1.4 1.4 0 0 0 42.3 10.8 Q 42.1 10.6 41.8 10.5 A 1.3 1.3 0 0 0 41.1 10.5 A 1.4 1.4 0 0 0 40.6 10.8 Q 40.3 11.1 40.2 11.4 A 3.1 3.1 0 0 0 39.9 12.2 A 3.2 3.2 0 0 0 39.8 13.1 A 2.1 2.1 0 0 0 40 13.8 A 1.4 1.4 0 0 0 40.4 14.3 Q 40.6 14.5 41 14.6 Z M 171 7.4 L 169.5 2.5 L 170.1 2.3 L 171.7 7.2 L 171 7.4 Z M 27.7 12.2 L 28.9 7.2 L 29.5 7.4 L 28.3 12.4 L 27.7 12.2 Z M 163.5 9.7 L 162.1 4.8 L 162.7 4.6 L 164.1 9.5 L 163.5 9.7 Z M 119.1 18.3 L 118.6 13.2 L 119.2 13.1 L 119.8 18.2 L 119.1 18.3 Z M 112.9 18.8 L 112.5 13.7 L 113.2 13.7 L 113.6 18.8 L 112.9 18.8 Z M 153.9 11.7 L 154.5 11.5 A 1.7 1.7 0 0 0 155.7 10.7 A 2.3 2.3 0 0 0 155.7 9.1 A 2.2 2.2 0 0 0 154.9 7.7 A 1.7 1.7 0 0 0 153.5 7.6 L 152.9 7.7 L 153.9 11.7 Z M 12.1 7.3 L 12.6 7.5 A 1.7 1.7 0 0 0 14.1 7.4 A 2.3 2.3 0 0 0 15 6.1 A 2.2 2.2 0 0 0 15 4.5 A 1.7 1.7 0 0 0 13.8 3.6 L 13.3 3.5 L 12.1 7.3 Z M 70.4 18.5 L 71 18.5 A 1.7 1.7 0 0 0 72.4 18.1 A 2.3 2.3 0 0 0 73 16.6 A 2.2 2.2 0 0 0 72.6 15.1 A 1.7 1.7 0 0 0 71.3 14.4 L 70.7 14.4 L 70.4 18.5 Z M 55.9 17 L 56.8 17.1 A 1.8 1.8 0 0 0 57.8 17 A 0.9 0.9 0 0 0 58.3 16.2 A 0.8 0.8 0 0 0 58 15.5 A 2 2 0 0 0 57 15.1 L 56.1 15 L 55.9 17 Z M 131.3 16.2 L 132.2 16 A 1.8 1.8 0 0 0 133.2 15.6 Q 133.5 15.3 133.4 14.8 A 0.8 0.8 0 0 0 133 14.2 A 2 2 0 0 0 131.9 14.1 L 131 14.2 L 131.3 16.2 Z M 79.7 14.9 L 79.6 16.8 L 80.5 16.9 A 1.5 1.5 0 0 0 81.4 16.7 A 0.9 0.9 0 0 0 81.7 15.9 A 0.8 0.8 0 0 0 81.5 15.2 A 1.7 1.7 0 0 0 80.5 15 L 79.7 14.9 Z M 96.4 15.1 L 96.4 17 L 97.3 17 A 1.5 1.5 0 0 0 98.2 16.7 A 0.9 0.9 0 0 0 98.5 16 A 0.8 0.8 0 0 0 98.1 15.3 A 1.7 1.7 0 0 0 97.2 15.1 L 96.4 15.1 Z M 66.2 14 L 66 15.9 L 66.9 16 A 1.5 1.5 0 0 0 67.8 15.8 Q 68.1 15.6 68.2 15.1 A 0.8 0.8 0 0 0 67.9 14.4 A 1.7 1.7 0 0 0 67 14.1 L 66.2 14 Z M 105.2 17.3 L 106.7 17.2 L 106.4 16.4 A 29.1 29.1 0 0 1 106.1 15.6 A 76.2 76.2 0 0 1 105.8 14.7 L 105.8 14.7 A 32 32 0 0 1 105.6 15.6 A 29.1 29.1 0 0 1 105.4 16.5 L 105.2 17.3 Z M 130.9 13.8 L 131.7 13.6 A 1.5 1.5 0 0 0 132.6 13.3 A 0.8 0.8 0 0 0 132.8 12.6 A 0.7 0.7 0 0 0 132.4 12 A 1.8 1.8 0 0 0 131.5 12 L 130.7 12.1 L 130.9 13.8 Z M 56.2 14.6 L 56.9 14.6 A 1.5 1.5 0 0 0 57.9 14.5 A 0.8 0.8 0 0 0 58.3 13.9 A 0.7 0.7 0 0 0 58.1 13.3 A 1.8 1.8 0 0 0 57.2 13 L 56.4 12.9 L 56.2 14.6 Z M 87.4 21.1 L 87.3 20.7 Q 87.6 20.5 87.8 20.3 A 0.9 0.9 0 0 0 88 19.7 A 0.3 0.3 0 0 1 87.9 19.8 A 0.5 0.5 0 0 1 87.6 19.6 A 0.4 0.4 0 0 1 87.5 19.3 A 0.4 0.4 0 0 1 87.6 19 A 0.5 0.5 0 0 1 87.9 18.9 A 0.5 0.5 0 0 1 88.3 19.1 A 0.9 0.9 0 0 1 88.5 19.6 A 1.5 1.5 0 0 1 88.2 20.5 A 1.8 1.8 0 0 1 87.4 21.1 Z M 0 2 L 0.2 1.6 L 1.9 2.2 L 1.7 2.7 L 0 2 Z M 179.9 2.7 L 179.7 2.2 L 181.4 1.6 L 181.6 2 L 179.9 2.7 Z">
            </path>
          </g>
        </g>
      </g>
    </g>
  </g>
  <mask data-mask="name-path" id="yiQ5eDbKFHRKXOp1fnu0f">
    <path
      d="M126.4098382434043-14.234Q130.14207907006485-30.580000000000002 133.83358836418176-46.69500000000001 137.24221932953017-44.759 140.65278989166637-42.834 135.93362978606604-22.649 131.15494621216615-2.0130000000000003C129.23232209805258-1.034 127.33430871005821-0.30800000000000005 125.48060403212207 0.11000000000000001 122.47483225697654 0.8800000000000001 119.57155709552303 1.0120000000000002 116.81077854776153 0.5060000000000001 114.14 0 111.77227508283468-1.7710000000000004 109.8317850059022-4.774 108.06220097715284-7.612 106.79761017578747-11.726 106.16340187568684-16.863000000000003Q105.30396527211292-24.409000000000002 106.12912584942625-34.760000000000005 107.06204481389074-45.155 109.93137305560869-58.025000000000006C111.17565467520289-63.437000000000005 112.98114435904124-68.629 115.22547299385332-73.304Q118.34462034040995-79.651 121.99438526432064-83.33600000000001C124.43527776727174-85.72300000000001 127.05324414004824-87.186 129.64888841477216-87.61500000000001 132.3306534959205-88.022 134.94367365653085-87.47200000000001 137.37540526769334-86.06400000000001 138.90605631503325-85.217 140.39403623304173-84.12800000000001 141.79128461850658-82.808 142.85314373009064-81.74100000000001 143.89754647058456-80.575 144.88061364641277-79.28800000000001 145.59156670981375-78.38600000000001 146.241184208549-77.363 146.84528493298188-76.252 147.19115073856312-75.54800000000002 147.52701654414437-74.84400000000001 147.87094275293782-74.129Q145.6726879093323-70.16900000000001 143.46279548500002-66.14300000000001C142.5041645196516-68.07900000000001 141.3967416185473-69.795 140.1488892009604-71.22500000000001 138.72952670306836-72.93 137.1442179143913-74.26100000000001 135.45326485099037-75.16300000000001 132.20566743424664-77.275 128.34601646552554-76.483 124.96534549343173-72.96300000000001 121.45114435904124-68.629 118.73303056108931-62.458000000000006 117.17664837429984-54.879000000000005Q115.35686352563529-46.827000000000005 114.58836722641858-39.633C114.07640770487693-35.255 113.94160253836438-31.031000000000002 114.20632084015135-27.258000000000003Q114.5888915595252-22.055000000000003 116.18373736173375-18.623C117.4225428427216-16.291 119.01233485709629-14.872 120.84444896952354-14.487000000000002 121.92401945304091-14.201 123.03492550122402-14.036000000000001 124.16104630764842-14.014000000000001 124.89328792049726-13.97 125.64492550122402-14.036000000000001 126.4098382434043-14.234Q126.4098382434043-14.234 126.4098382434043-14.234M41.606899354185934 0.528Q37.308630965348414 1.9360000000000002 33.053033705842346 3.102 32.09504024260186-0.539 30.794375650029938-3.9380000000000006C30.00811379795194-6.171000000000001 29.17245597799601-8.294 28.313220980525525-10.340000000000002 27.476831628025945-12.232 26.592985904436222-14.025 25.665563003331947-15.741000000000001Q24.37705953840512-18.018 23.17963663730085-19.734C22.703086314393815-19.470000000000002 22.210415185062367-19.228 21.73968365251871-18.997Q21.17834808785299-18.876 20.603133329611676-18.733000000000004 18.73675752234409-18.073 16.880079699015468-17.468000000000004 16.95212049194911-6.534000000000001 16.90972507440296 5.049 13.313604267978546 5.027000000000001 9.748517010158823 4.829 9.056998977955264-21.307000000000002 7.603219408149012-43.120000000000005C9.630279732742391-44.748000000000005 11.709581670184601-46.332 13.827246026900049-47.85 15.850729173978877-49.401 17.894212321057708-50.952000000000005 19.94187667777316-52.470000000000006 24.716252327803094-56.40800000000001 29.499815960085648-59.037000000000006 33.87244007419923-60.016000000000005 34.36795684850158-60.104000000000006 34.843775638864955-60.13700000000001 35.291836042077165-60.126 38.96110450953351-59.89500000000001 41.02746039204723-56.188 40.633702319371366-49.588Q40.34938085026942-35.442 31.366891402287543-25.333000000000002 32.48371027126975-23.727000000000004 33.94148220365292-21.219C34.96593195936471-19.316 35.9332273600474-17.259 36.85306638963994-15.103000000000002 37.77993227384002-12.76 38.639643803010976-10.263000000000002 39.43995936430401-7.656000000000001Q40.749764923910696-3.6850000000000005 41.606899354185934 0.528 41.606899354185934 0.528 41.606899354185934 0.528M103.01164238787212-39.765Q92.69375650029934-39.38 82.26919278939798-38.39C81.3971527826526-32.934000000000005 81.46911946990437-27.841 82.45711293314486-24.200000000000003 83.81898558996092-20.581000000000003 85.97028768464078-18.887000000000004 88.5369655079694-19.492 90.1469655079694-19.492 91.83454937948112-19.932000000000002 93.56777752571679-20.801000000000002 94.84415333298438-21.461000000000002 96.14901905994678-22.396 97.45849551302844-23.584000000000003Q96.62793211660235-16.038 95.80512710732745-8.536 95.06935533218194-7.766 93.93552315382422-7.007000000000001C93.02332855619325-6.314000000000001 92.11471113607683-5.698 91.21936887741393-5.214Q89.78359710226842-4.444000000000001 88.19437565002994-3.9380000000000006C87.07006693997174-3.63 85.96903339136703-3.4540000000000006 84.91097298815482-3.4650000000000003 82.41024145561119-3.234 80.14286556972476-4.213 78.20720774976884-6.336 76.63142242939132-8.118 75.41183840064194-10.956000000000001 74.65996574382588-14.575000000000001 73.94451590949527-18.117 73.65574389849327-22.264 73.81485777506403-26.796000000000003 74.00901189423665-31.867 74.57583714274072-37.18 75.50429997197156-42.559 76.46362183416764-48.510000000000005 77.89264168030267-54.516000000000005 79.58321862196075-59.510000000000005 80.8664332229644-62.931000000000004 82.47085588821221-66.132 84.35157387552387-68.915 86.08349992707967-71.47800000000001 88.02202331676035-73.568 90.01998968953684-75.031 91.95631848158656-76.42800000000001 93.88984864388325-77.242 95.73894259570015-77.40700000000001 99.62725799975553-78.07800000000002 102.89248630322884-75.66900000000001 104.70070129732663-70.89500000000001 106.32107741906951-64.99900000000001 106.36766837767254-57.607 104.25462191278646-46.871 104.2510447352719-46.794000000000004 104.23746755775736-46.717000000000006 104.2238903802428-46.64 104.02605150788791-45.51800000000001 103.8340314258964-44.429 103.64201134390487-43.34 103.44253489082323-42.152 103.23111884095377-40.953 103.01164238787212-39.765Q103.01164238787212-39.765 103.01164238787212-39.765M72.37437407765343-36.718Q61.35004544284135-32.043 50.37226713093631-27.632000000000005C49.94733446400217-23.067 50.49550244288209-19.03 51.891938810599534-16.401 53.558073162255944-13.827000000000002 55.889026225656906-12.925 58.47104630764843-14.014000000000001 60.1641469534625-14.542000000000002 61.9128918740005-15.499 63.66758308532347-16.830000000000002 64.94214679622485-17.82 66.23744203966989-19.041 67.51152921887078-20.482000000000003Q67.21285840401464-13.684000000000001 66.90255000843173-6.820000000000001C66.28483863649842-6.039000000000001 65.66070444207966-5.335 65.03014742517546-4.708000000000001 64.13437565002994-3.9380000000000006 63.25606024597455-3.2670000000000003 62.37520121300931-2.6950000000000003 61.33076500252952-2.0460000000000003 60.30184556635207-1.4850000000000003 59.284261694840346-1.045 58.15564427472393-0.42900000000000005 57.04 0 55.947630886729584 0.29700000000000004 53.439013466613176 0.913 51.07659733812489 0.47300000000000003 48.964865726962415-0.935 47.19597976077083-2.189 45.7222615376027-4.323 44.66073791206552-7.15 43.58205993149925-9.823 42.87260340317146-13.002 42.60715356884084-16.544 42.3757104285074-20.449 42.47530083677864-24.53 42.95234761614003-28.710000000000004 43.37891786380093-33.341 44.29264246649094-38.126 45.660548278817565-42.878 46.80462191278646-46.871 48.36093715960419-50.82000000000001 50.21264168030268-54.516000000000005 51.89973547488192-57.959 53.73226555855979-60.412000000000006 55.709151367513726-62.436 57.660218386104276-64.427 59.69176193639531-65.967 61.69632564729669-66.95700000000001 65.81976177915766-69.245 69.56860073013138-68.72800000000001 71.93060088736904-65.45 74.20639975297854-61.11600000000001 74.71807796940129-53.526 73.25140731178281-43.45 73.23395094069267-43.351 73.22231335996591-43.285000000000004 73.20873618245136-43.208000000000006 73.09089731009647-42.086 72.95305843774156-40.964000000000006 72.81521956538667-39.842 72.68289746733412-38.80800000000001 72.53057536928156-37.77400000000001 72.37437407765343-36.718Q72.37437407765343-36.718 72.37437407765343-36.718M173.97603315551055-8.371C176.49058332117994-11.913 178.51871066436388-15.532 179.9768380075478-19.151000000000003 181.50393180212706-22.594 182.4626631774331-26.103 182.81751535916348-29.59Q183.26705875221685-34.408 182.2138035155172-38.64300000000001C181.49749464822136-41.613 180.30760860341096-44.50600000000001 178.72087021963247-47.190000000000005Q176.38507135402295-51.52400000000001 173.10186313254115-55.022000000000006C171.00439321621903-57.475 168.6492119279636-59.147000000000006 166.20377563886495-60.13700000000001 163.8308829786762-61.028 161.38639975297855-61.11600000000001 159.04062797783303-60.346000000000004 156.4996414444462-59.43300000000001 154.09960797446033-57.61800000000001 151.8757893413346-54.307 149.26007812663894-50.248000000000005 146.96622602352735-45.12200000000001 145.12987730672376-39.358000000000004 143.1577097995568-33.56100000000001 141.66826043693914-27.269000000000002 140.7891130903825-20.922 140.06646905151504-15.576000000000002 139.94873775482787-10.428 140.43574468468154-5.8740000000000006Q141.27284564497091 0.15400000000000003 143.73859749536254 3.7510000000000003 146.23344329757109 7.183000000000001 150.13840305496925 7.722C152.6118527320622 7.986000000000001 155.35853055539081 7.381 158.24098015386497 6.006 160.98209418767337 4.752000000000001 163.78316120626394 2.761 166.45151008030518 0.275 169.24537572864875-2.299 171.8171272645651-5.258000000000001 173.97603315551055-8.371Q173.97603315551055-8.371 173.97603315551055-8.371M151.63874334816148-33.737C150.4161327792799-30.206000000000003 149.45085108106684-26.433000000000003 148.78587139891485-22.605000000000004 148.1936903465159-19.360000000000003 147.9673280844803-16.148 148.12363695177618-13.178 148.29007331949362-10.549000000000001 148.8405163812082-8.283000000000001 149.7559996855247-6.556 150.8095433930534-4.8180000000000005 152.22946290784967-3.74 153.88545621385248-3.3770000000000002Q156.3771408097971-2.706 159.09437565002995-3.9380000000000006C160.84208702196324-4.719 162.60514065255947-5.984000000000001 164.24414057394063-7.623 165.99641565677533-9.394 167.57718065930484-11.440000000000001 168.89510001686347-13.640000000000002 170.4834488909047-16.126 171.8073145392483-18.700000000000003 172.86087817153086-21.329 173.89504583593546-23.848000000000003 174.65279067785465-26.444000000000003 175.12053551977382-29.04 175.50009245805919-31.306000000000004 175.52546818670797-33.605000000000004 175.22114593141777-35.849000000000004 174.94966932109844-37.93900000000001 174.3526759364768-39.941 173.46270940646266-41.75600000000001 172.4934744089922-43.80200000000001 171.22380989503907-45.562000000000005 169.76850110636204-46.89300000000001 168.32870909198738-48.312000000000005 166.7077560285864-49.214000000000006 165.02818554506902-49.50000000000001Q162.60189022300517-49.918000000000006 160.3400446566531-48.43300000000001C158.68668900999586-47.223000000000006 157.13277634643438-45.386 155.78158182742226-43.054 154.20250142083736-40.337 152.80583714274073-37.18 151.63874334816148-33.737Q151.63874334816148-33.737 151.63874334816148-33.737M16.070165777552802-41.855Q16.439474880705138-33.968 16.71538132198237-25.608000000000004 18.38175712924996-26.268 20.052012130093132-26.950000000000003C21.74972350202644-27.731 23.448468422564446-28.688 25.154065682070517-29.854000000000003 26.44535423151838-30.712000000000003 27.714830684600035-31.900000000000002 28.882797057376518-33.363 29.84972988154831-34.650000000000006 30.64709222220273-36.223000000000006 31.183850530735075-37.906000000000006Q31.902803436898388-40.282000000000004 31.953648924631633-43.406000000000006C31.998467636376184-45.078 31.73061521878929-46.508 31.182937316841844-47.542 30.660044656653085-48.43300000000001 29.871507721740397-48.89500000000001 28.907628528164807-48.873000000000005 27.787930544225844-48.818000000000005 26.57198425344088-48.444 25.311729252597708-47.76200000000001 23.837595058178945-47.05800000000001 22.35436691194329-46.18900000000001 20.871742797829704-45.21000000000001 19.261662312625976-44.132 17.65382344027108-43.010000000000005 16.070165777552802-41.855Q16.070165777552802-41.855 16.070165777552802-41.855M51.66337399903459-38.357Q58.874346987189426-41.82200000000001 66.1008367496466-45.37500000000001C66.36069570399302-47.586 66.46503788403709-49.709 66.40446732190088-51.634 66.33510482400881-53.339000000000006 66.09082958393647-54.846000000000004 65.67642684344254-56.01200000000001 65.22456773185847-57.07900000000001 64.58900394233827-57.728 63.81003749094296-57.904 62.9427086202744-58.146 61.95943345882088-58.01400000000001 60.9402120065824-57.508 59.83935297361716-56.936 58.68733289162565-55.84700000000001 57.57742692206137-54.373000000000005 56.59855450110178-53.075 55.669252563659576-51.49100000000001 54.85891707761267-49.731 54.07246078514136-47.99300000000001 53.40078973442874-46.11200000000001 52.897179086928325-44.220000000000006 52.37193085870115-42.26200000000001 51.96474303368618-40.293000000000006 51.667253192610175-38.379000000000005Q51.66337399903459-38.357 51.66337399903459-38.357M84.50640691868868-51.64500000000001Q91.37903103280226-52.62400000000001 98.1779504689797-53.18500000000001 98.8568093447073-57.035000000000004 98.78739983159737-59.477000000000004C98.79924539794945-60.962 98.62975539963578-62.326 98.29311104629303-63.536 97.94707072507234-64.63600000000001 97.41611766167138-65.538 96.75891629142441-66.12100000000001 95.98141290511641-66.759 95.06602363123565-67.012 94.08274846978215-66.88Q92.36529209869201-66.781 90.94448008094463-65.47200000000001C90.00646669295028-64.74600000000001 89.11802378847331-63.734 88.31272854502828-62.513000000000005Q87.17166152643772-60.522000000000006 86.26434620100116-58.212C85.62103756956179-56.265 85.01566184091303-53.96600000000001 84.50640691868868-51.64500000000001Q84.50640691868868-51.64500000000001 84.50640691868868-51.64500000000001"
      stroke-width="1" stroke-linejoin="round" stroke="#000" fill="#fff"></path>
  </mask>
  <defs v-gra="od"></defs>
</svg>